<?xml version="1.0" encoding="iso-8859-1"?>
<!-- Uploaded to: SVG Repo, www.svgrepo.com, Generator: SVG Repo Mixer Tools -->
<svg fill="#000000" height="800px" width="800px" version="1.1" id="Layer_1" xmlns="http://www.w3.org/2000/svg" xmlns:xlink="http://www.w3.org/1999/xlink" 
	 viewBox="0 0 507.9 507.9" xml:space="preserve">
<g>
	<g>
		<path d="M465.7,51.05H42.3C19,51.05,0,70.05,0,93.35v307.1c0,23.3,19,42.3,42.3,42.3h28c0,7.8,6.3,14.1,14.1,14.1H143
			c7.8,0,14.1-6.3,14.1-14.1h193.8c0,7.8,6.3,14.1,14.1,14.1h58.5c7.8,0,14.1-6.3,14.1-14.1h28c23.3,0,42.3-19,42.3-42.3V93.35
			C508,70.05,489,51.05,465.7,51.05z M465.7,414.55H42.3c-7.8,0-14.1-6.3-14.1-14.1V93.35c0-7.8,6.3-14.1,14.1-14.1h423.3
			c7.8,0,14.1,6.3,14.1,14.1v307.1h0.1C479.8,408.25,473.5,414.55,465.7,414.55z"/>
	</g>
</g>
<g>
	<g>
		<path d="M328.6,107.45h-258c-7.8,0-14.1,6.3-14.1,14.1v250.6c0,7.8,6.3,14.1,14.1,14.1h258c7.8,0,14.1-6.3,14.1-14.1v-250.6
			C342.7,113.75,336.4,107.45,328.6,107.45z M314.5,358.15H84.7v-222.5h229.8V358.15z"/>
	</g>
</g>
<g>
	<g>
		<path d="M450.8,107.45h-75.2c-7.8,0-14.1,6.3-14.1,14.1v75.2c0,7.8,6.3,14.1,14.1,14.1h75.2c7.8,0,14.1-6.3,14.1-14.1v-75.2
			C464.9,113.75,458.6,107.45,450.8,107.45z M436.7,182.65h-47v-47h47V182.65z"/>
	</g>
</g>
<g>
	<g>
		<path d="M384.7,232.75h-9.1c-7.8,0-14.1,6.3-14.1,14.1c0,7.8,6.3,14.1,14.1,14.1h9.1c7.8,0,14.1-6.3,14.1-14.1
			C398.9,239.15,392.5,232.75,384.7,232.75z"/>
	</g>
</g>
<g>
	<g>
		<path d="M450.8,232.75h-9.1c-7.8,0-14.1,6.3-14.1,14.1c0,7.8,6.3,14.1,14.1,14.1h9.1c7.8,0,14.1-6.3,14.1-14.1
			C464.9,239.15,458.6,232.75,450.8,232.75z"/>
	</g>
</g>
<g>
	<g>
		<path d="M384.7,281.65h-9.1c-7.8,0-14.1,6.3-14.1,14.1s6.3,14.1,14.1,14.1h9.1c7.8,0,14.1-6.3,14.1-14.1
			C398.9,287.95,392.5,281.65,384.7,281.65z"/>
	</g>
</g>
<g>
	<g>
		<path d="M450.8,281.65h-9.1c-7.8,0-14.1,6.3-14.1,14.1s6.3,14.1,14.1,14.1h9.1c7.8,0,14.1-6.3,14.1-14.1
			C464.9,287.95,458.6,281.65,450.8,281.65z"/>
	</g>
</g>
<g>
	<g>
		<path d="M384.7,330.55h-9.1c-7.8,0-14.1,6.3-14.1,14.1c0,7.8,6.3,14.1,14.1,14.1h9.1c7.8,0,14.1-6.3,14.1-14.1
			C398.9,336.85,392.5,330.55,384.7,330.55z"/>
	</g>
</g>
<g>
	<g>
		<path d="M450.8,330.55h-9.1c-7.8,0-14.1,6.3-14.1,14.1c0,7.8,6.3,14.1,14.1,14.1h9.1c7.8,0,14.1-6.3,14.1-14.1
			C464.9,336.85,458.6,330.55,450.8,330.55z"/>
	</g>
</g>
</svg>