<?xml version="1.0" encoding="iso-8859-1"?>
<!-- Uploaded to: SVG Repo, www.svgrepo.com, Generator: SVG Repo Mixer Tools -->
<svg fill="#000000" height="800px" width="800px" version="1.1" id="Layer_1" xmlns="http://www.w3.org/2000/svg" xmlns:xlink="http://www.w3.org/1999/xlink" 
	 viewBox="0 0 512.308 512.308" xml:space="preserve">
<g transform="translate(-1)">
	<g>
		<path d="M476.688,326.378l-43.585,43.585c-7.079-8.983-16.164-16.308-26.597-21.277c-15.442-25.099-26.632-47.885-35.232-71.517
			l111.92-68.595c35.743-21.898,38.264-84.234,14.979-122.24l-2.427-3.955c0.022-11.941-3.149-24.034-9.848-34.959l-22.74-37.096
			c-6.157-10.044-19.291-13.196-29.336-7.04L20.382,256.68C1.276,268.369-4.719,293.363,6.974,312.477l2.369,3.855
			c6.941,11.319,16.07,20.472,26.503,27.266l-13.824,27.377c-5.084,10.068-1.452,22.354,8.289,28.04l85.376,49.835
			c9.504,5.547,21.668,2.956,28.085-5.984l41.117-57.277c7.731-1.007,15.099-3.437,21.765-7.524l42.891-26.288
			c17.14,18.625,32.71,39.482,48.983,65.671c0.411,0.662,0.857,1.288,1.326,1.889c1.681,39.753,34.418,71.459,74.586,71.459
			c23.807,0,44.992-11.15,58.664-28.5l43.585,43.585c13.439,13.439,36.418,3.921,36.418-15.085V341.463
			C513.106,322.457,490.127,312.939,476.688,326.378z M437.93,50.808l11.593,18.912c6.951,11.336,3.405,26.165-7.914,33.141
			l-0.035,0.022l-41.088,25.173l-103.263,63.297L106.078,308.499c-20.675,12.678-47.691,6.193-60.373-14.488l-1.254-2.04
			L437.93,50.808z M120.432,402.216l-51.274-29.929l5.625-11.139c11.014,1.995,21.653,1.2,31.267-3.059l4.99,1.059
			c8.284,7.232,17.648,13.344,27.448,17.915L120.432,402.216z M184.354,341.689c-2.176,1.334-5.096,1.902-8.473,1.828
			c-0.343-0.036-0.684-0.076-1.033-0.096c-8.116-0.472-18.09-4.34-27.267-10.314l47.163-28.895l124.93-76.578l144.189-88.369
			c0.015-0.009,0.03-0.02,0.045-0.029l6.162-3.775c1.626,16.237-1.717,32.168-9.167,36.732l-217.38,133.232l-1.657,1.015
			c-0.002,0.001-0.004,0.002-0.006,0.004L184.354,341.689z M286.549,329.1l47.682-29.218c5.754,14.778,12.466,29.338,20.431,44.248
			c-14.855,4.07-27.858,12.602-37.474,24.08C307.211,353.951,297.138,341.099,286.549,329.1z M374.44,448.13
			c-17.679,0-32-14.321-32-32c0-2.104,0.209-4.157,0.596-6.147c0.278-0.711,0.528-1.435,0.73-2.178
			c3.398-12.53,13.86-21.695,26.451-23.388c0.149-0.02,0.299-0.039,0.449-0.057c0.284-0.034,0.57-0.064,0.856-0.091
			c0.266-0.024,0.534-0.044,0.802-0.061c0.207-0.014,0.414-0.03,0.623-0.039c0.495-0.023,0.992-0.038,1.493-0.038
			c2.133,0,4.404,0.265,6.905,0.803c0.246,0.053,0.495,0.079,0.742,0.123c13.982,3.427,24.352,16.032,24.352,31.074
			C406.44,433.809,392.119,448.13,374.44,448.13z M470.44,439.293l-21.378-21.378c0.014-0.595,0.045-1.186,0.045-1.785
			s-0.031-1.19-0.045-1.785l21.378-21.378V439.293z"/>
	</g>
</g>
</svg>